<svg width="18" height="20" viewBox="0 0 18 20" fill="none" xmlns="http://www.w3.org/2000/svg">
<path d="M14.5 6.40096C14.5 4.96853 13.9205 3.59478 12.8891 2.5819C11.8576 1.56903 10.4587 1 9 1C7.54131 1 6.14236 1.56903 5.11091 2.5819C4.07946 3.59478 3.5 4.96853 3.5 6.40096C3.5 12.7021 0.75 14.5024 0.75 14.5024H17.25C17.25 14.5024 14.5 12.7021 14.5 6.40096Z" fill="#CDD2EB" stroke="#CDD2EB" stroke-width="1.5" stroke-linecap="round" stroke-linejoin="round"/>
<path d="M10.5859 18.1028C10.4247 18.3756 10.1934 18.6021 9.91509 18.7595C9.63677 18.9169 9.32123 18.9998 9.00005 18.9998C8.67887 18.9998 8.36332 18.9169 8.08501 18.7595C7.80669 18.6021 7.57537 18.3756 7.41422 18.1028" stroke="white" stroke-width="2" stroke-linecap="round" stroke-linejoin="round"/>
</svg>
